<?xml version="1.0" encoding="utf-8"?>
<!-- Generator: Adobe Illustrator 22.0.0, SVG Export Plug-In . SVG Version: 6.00 Build 0)  -->
<svg version="1.1" id="Layer_1" xmlns="http://www.w3.org/2000/svg" xmlns:xlink="http://www.w3.org/1999/xlink" x="0px" y="0px"
	 viewBox="0 0 297.9 268.7" style="enable-background:new 0 0 297.9 268.7;" xml:space="preserve">
<style type="text/css">
	.st0{fill:#F7F7F7;}
	.st1{fill:#EFE3E3;}
	.st2{fill:#4CB5AB;}
	.st3{fill:none;stroke:#333333;stroke-width:3;stroke-miterlimit:10;}
	.st4{fill:none;stroke:#535561;stroke-width:2;stroke-miterlimit:10;}
	.st5{fill:#5F4B8B;}
	.st6{fill:#FFFFFF;stroke:#F7F7F7;stroke-width:2;stroke-miterlimit:10;}
	.st7{fill:#D11F51;stroke:#FFFFFF;stroke-miterlimit:10;}
	.st8{fill:#949294;stroke:#FFFFFF;stroke-miterlimit:10;}
	.st9{opacity:0.25;enable-background:new    ;}
	.st10{fill:url(#SVGID_1_);}
	.st11{fill:url(#SVGID_2_);}
	.st12{fill:#F7A47E;}
	.st13{fill:#ECEDF7;}
	.st14{fill:#7B7578;}
	.st15{fill:#333333;}
	.st16{opacity:0.1;enable-background:new    ;}
	.st17{fill:#1A174B;}
	.st18{fill:#FFFFFF;}
	.st19{fill:#949294;}
	.st20{fill:#F4C1D3;}
	.st21{fill:#5F4A8B;}
	.st22{opacity:0.2;enable-background:new    ;}
	.st23{fill:url(#SVGID_3_);}
	.st24{fill:#EEEEEE;}
	.st25{fill:#FF5252;}
	.st26{fill:#FFFF00;}
	.st27{fill:#69F0AE;}
	.st28{opacity:0.5;fill:#5F4A8B;enable-background:new    ;}
	.st29{fill:url(#SVGID_4_);stroke:url(#SVGID_5_);stroke-width:5;stroke-miterlimit:10;}
	.st30{fill:#969396;}
	.st31{fill:#D22050;}
	.st32{fill:#282827;}
	.st33{fill:#EAEAEA;stroke:#EAEAEA;stroke-width:6;stroke-miterlimit:10;}
	.st34{fill:#563A39;}
	.st35{fill:#AF8070;}
	.st36{fill:#348FC0;}
	.st37{fill:#060707;}
	.st38{fill:#4B3938;}
	.st39{fill:none;stroke:#FFFFFF;stroke-width:0.75;stroke-miterlimit:10;}
	.st40{fill:none;stroke:#969396;stroke-width:0.75;stroke-miterlimit:10;}
	.st41{fill:none;stroke:#5F4A8B;stroke-miterlimit:10;}
	.st42{opacity:0.44;}
	.st43{fill:#008D98;}
	.st44{fill:#44B876;}
	.st45{fill:#707171;}
	.st46{fill:#D11F51;}
	.st47{fill:#663398;}
	.st48{fill:#F4F4F4;}
	.st49{opacity:0.26;}
	.st50{fill:none;}
	.st51{fill:url(#SVGID_6_);}
	.st52{fill:url(#SVGID_7_);}
	.st53{fill:url(#SVGID_8_);}
	.st54{fill:url(#SVGID_9_);}
	.st55{fill:#99356E;}
	.st56{fill:#4A6DB3;}
	.st57{fill:#F3F5FA;}
	.st58{fill:url(#SVGID_10_);}
	.st59{fill:url(#SVGID_11_);}
	.st60{fill:#F6F7F7;}
	.st61{fill:#D41D52;}
</style>
<path class="st18" d="M175.9,135.9v0.4c0,1.1,0,2.3,0,3.4c0,1.4,0.9,2.3,2.3,2.3c4.1,0,8.2,0,12.2,0c0.6,0,0.6-0.1,0.6,0.6
	c0,0.4,0,0.9,0,1.3c0,0.3-0.1,0.4-0.4,0.4c-1.3,0-2.7,0-4,0c-3,0-6-0.1-9,0c-2.1,0-4-1.6-4.3-3.6c0-0.2,0-0.4,0-0.6
	c0-3.4,0-6.8,0-10.1c0-2.4,1.8-4.2,4.2-4.2c4.4,0,8.7,0,13.1,0c0.3,0,0.4,0.1,0.4,0.4c0,0.5,0,1.1,0,1.6c0,0.2-0.1,0.3-0.3,0.3
	c-0.1,0-0.2,0-0.3,0c-4.1,0-8.2,0-12.3,0c-1.2,0-2,0.6-2.3,1.7c0,0.2,0,0.4,0,0.6c0,0.9,0,1.9,0,2.8c0,0.3,0.1,0.4,0.4,0.4
	c3.9,0,7.9,0,11.8,0c0.4,0,0.4,0,0.4,0.4c0,0.5,0,1,0,1.5c0,0.3-0.1,0.4-0.4,0.4c-3.7,0-7.4,0-11.1,0L175.9,135.9z"/>
<path class="st18" d="M207.7,134.4c0.8,0.2,1.5,0.5,2,1.1c0.4,0.5,0.7,1.1,0.7,1.7c0,1.3,0,2.6,0,3.9c0,1.6-1,2.7-2.7,3.1
	c-0.5,0.1-1,0.1-1.4,0.1c-4.6,0-9.2,0-13.8,0c-0.3,0-0.4-0.1-0.4-0.4c0-5.9,0-11.8,0-17.7c0-0.3,0.1-0.4,0.4-0.4c4.4,0,8.9,0,13.3,0
	c0.8,0,1.6,0.1,2.3,0.4c1.1,0.5,1.8,1.3,1.8,2.6c0.1,1.2,0,2.4,0,3.6c-0.1,1.2-0.6,1.7-1.9,1.9C207.9,134.3,207.8,134.3,207.7,134.4
	z M200.4,142.1c1.7,0,3.4,0,5.1,0c0.5,0,0.9-0.1,1.4-0.2c0.6-0.2,0.9-0.6,0.9-1.2c0-1.1,0-2.2,0-3.2c0-0.8-0.4-1.3-1.3-1.5
	c-0.3-0.1-0.5-0.1-0.8-0.1c-3.6,0-7.2,0-10.8,0c-0.3,0-0.3,0.1-0.3,0.4c0,1.8,0,3.7,0,5.5c0,0.3,0.1,0.4,0.4,0.4
	C196.8,142.1,198.6,142.1,200.4,142.1L200.4,142.1z M200.3,133.6L200.3,133.6c1.8,0,3.5,0,5.3,0c1.1,0,1.8-0.6,1.8-1.6
	c0-0.7,0-1.4,0-2.2c0-0.8-0.4-1.3-1.2-1.6c-0.3-0.1-0.7-0.2-1-0.2c-3.4,0-6.8,0-10.2,0c-0.3,0-0.4,0.1-0.4,0.4c0,1.6,0,3.2,0,4.8
	c0,0.4,0,0.4,0.4,0.4L200.3,133.6z"/>
<path class="st18" d="M131.3,149.5c-0.8,0-1.5,0-2.2,0c-0.1,0-0.1-0.1-0.2-0.2c0-0.1,0-0.2,0-0.3c0-6,0-11.9,0-17.9
	c0-0.5,0-0.5,0.5-0.5c3.1,0,6.2,0,9.3,0c1.2,0,2.2,0.4,3,1.2c0.7,0.7,1,1.5,1,2.4c0,2.1,0,4.2,0,6.3c0,2-1.6,3.6-3.7,3.6
	c-1.9,0-3.9,0-5.8,0c-0.5,0-1.1,0-1.6,0c-0.3,0-0.4,0.1-0.4,0.4c0,1.5,0,3,0,4.5L131.3,149.5z M131.3,137.5c0,1.4,0,2.9,0,4.3
	c0,0.2,0,0.4,0.3,0.4c2.3,0,4.6,0,6.9,0c1,0,1.9-0.9,1.9-1.9c0-1.9,0-3.7,0-5.6c0-0.3-0.1-0.6-0.2-0.8c-0.4-0.8-1.2-1-2-1
	c-2.1,0-4.3,0-6.4,0c-0.3,0-0.4,0.1-0.4,0.4C131.3,134.6,131.3,136,131.3,137.5L131.3,137.5z"/>
<path class="st18" d="M151.7,138.7c-1.8,0-3.6,0-5.4,0c-0.3,0-0.4,0.1-0.4,0.4c0,0.6,0,1.2,0,1.8c0,0.8,0.4,1.2,1.2,1.2
	c1.4,0,2.8,0,4.2,0c1.5,0,3,0,4.5,0c0.3,0,0.4,0.1,0.3,0.3c0,0.5,0,1,0,1.4c0,0.2-0.1,0.3-0.3,0.3c-3.1,0-6.2,0-9.3,0
	c-1.4,0-2.6-0.9-2.9-2.1c-0.1-0.3-0.1-0.6-0.1-0.8c0-2.3,0-4.6,0-6.9c0-1.9,1.5-3.6,3.4-3.7c0.6-0.1,1.1-0.1,1.7,0
	c1.8,0,3.6,0,5.3,0.1c1.6,0.1,3,1.4,3.4,2.9c0,0.2,0.1,0.5,0.1,0.7c0,1.3,0,2.6,0,4c0,0.3-0.1,0.4-0.4,0.4
	C155.3,138.7,153.5,138.7,151.7,138.7z M150.5,136.6c1.4,0,2.8,0,4.2,0c0.3,0,0.4-0.1,0.4-0.4c0-0.5,0-0.9,0-1.4c0-1.1-0.8-2-1.9-2
	c-1.8,0-3.5,0-5.3,0c-1.1,0-1.9,0.9-1.9,2c0,0.5,0,0.9,0,1.4c0,0.3,0.1,0.3,0.4,0.3C147.7,136.6,149.1,136.6,150.5,136.6z"/>
<path class="st18" d="M172.4,138.9c0,1.7,0,3.3,0,5c0,0.3-0.1,0.4-0.4,0.4c-0.6,0-1.1,0-1.7,0c-0.3,0-0.4-0.1-0.4-0.4
	c0-3,0-5.9,0-8.9c0-1.3-0.7-2.2-2-2.2c-1.8-0.1-3.6-0.1-5.4,0c-1.2,0.1-1.9,0.9-1.9,2.1c0,2.5,0,5,0,7.5c0,0.5,0,1,0,1.5
	c0,0.2-0.1,0.3-0.3,0.3c-0.6,0-1.2,0-1.8,0c-0.2,0-0.3-0.1-0.3-0.3c0-3.3,0-6.5,0-9.8c0-1.7,1.4-3.2,3.2-3.5c0.2,0,0.5-0.1,0.7-0.1
	c2.1,0,4.2,0,6.2,0c1.4,0,2.5,0.6,3.4,1.8c0.3,0.5,0.5,1,0.5,1.6C172.4,135.7,172.4,137.3,172.4,138.9L172.4,138.9z"/>
<path class="st18" d="M127.5,135c0,1.7,0,3.4,0,5.1c0,1.9-1.4,3.6-3.2,4c-0.3,0.1-0.6,0.1-0.9,0.1c-0.2,0-0.4,0-0.6,0
	c-2.5,0.1-5,0-7.6,0c-0.7,0-1.5,0-2.2,0c-0.5,0-1,0-1.5-0.2c-1.5-0.4-2.5-1.4-2.9-2.9c-0.1-0.3-0.1-0.7-0.1-1c0-0.4,0-0.8,0-1.2
	c0-2.7,0-5.4,0-8c0-0.4,0-0.9,0-1.3c0-0.8,0.3-1.5,0.8-2.1c0.6-0.9,1.6-1.5,2.7-1.7c0.4-0.1,0.8,0,1.2-0.1c1.4-0.1,2.7,0,4.1,0
	s2.7,0,4.1,0c0.7,0,1.4,0,2.1,0c1,0,2,0.4,2.7,1.1c0.7,0.6,1.1,1.4,1.3,2.3c0,0.3,0.1,0.5,0.1,0.8
	C127.5,131.6,127.5,133.3,127.5,135L127.5,135z M118.1,141.9L118.1,141.9c1.4,0,2.9,0,4.3,0c0.3,0,0.6,0,0.9-0.1
	c0.6-0.1,1.1-0.4,1.5-0.8c0.2-0.3,0.4-0.7,0.4-1.1c0-0.2,0-0.4,0-0.6c0-0.5,0-1,0-1.5c0-0.4,0-0.7,0-1.1l0-1.3l0-1.1l0-1.2
	c0-0.4,0-0.8,0-1.2c0-0.5,0-1.1,0-1.6c0-0.2,0-0.4-0.1-0.7c-0.1-0.5-0.3-0.9-0.6-1.2c-0.4-0.4-0.9-0.6-1.5-0.6c-0.1,0-0.2,0-0.2,0
	c-0.1,0-0.3,0-0.4,0c-0.5,0-1.1,0-1.6,0c-2.3,0-4.7,0-7,0c-0.3,0-0.5,0-0.7,0.1c-0.5,0.1-1,0.3-1.4,0.7c-0.3,0.4-0.6,0.8-0.6,1.3
	c0,0.4,0,0.9,0,1.3l0,1.2l0,1.3l0,1.2l0,1.2l0,1.1c0,0.4,0,0.8,0,1.2c0,0.3,0,0.7,0,1c0,0.3,0,0.5,0.1,0.8c0.3,1.1,1.2,1.6,2.2,1.7
	c0,0,0.1,0,0.1,0c0.2,0,0.5,0,0.7,0H118.1z"/>
<path class="st18" d="M211.7,142.1h0.5c4.1,0,8.2,0,12.3,0c1.4,0,2.3-0.8,2.4-2.2c0-0.6,0-1.3,0-1.9c-0.1-1.1-1-2-2.1-2
	c-3.1,0-6.2,0-9.3,0c-0.7,0-1.4-0.1-2-0.5c-1.2-0.7-2.1-1.7-2.2-3.1c-0.1-1.1-0.1-2.1,0-3.2c0.3-1.9,2-3.3,3.9-3.3
	c4.2,0,8.4,0,12.6,0c0.2,0,0.3,0.1,0.3,0.3c0,0.5,0,1,0,1.6c0,0.3-0.1,0.4-0.4,0.4c-3.9,0-7.9,0-11.8,0c-0.8,0-1.5,0.3-2,1
	c-0.5,0.8-0.5,2.8,0,3.5c0.5,0.7,1.1,1,1.9,1c3.1,0,6.1,0,9.2,0c0.8,0,1.5,0.1,2.1,0.5c1.4,0.8,2.1,2,2.1,3.6c0,0.9,0,1.7,0,2.6
	c0,2.2-1.8,4.1-4,4.1c-4.4,0-8.8,0-13.2,0c-0.2,0-0.3,0-0.3-0.3C211.7,143.4,211.7,142.7,211.7,142.1z"/>
<g>
	<path class="st34" d="M77,116.8h0.5c0,0,0,0,0.1,0c0.2,0,0.5,0.1,0.7,0.2c0.5,0.2,0.9,0.6,1.3,1.1c0.5,0.7,0.9,1.5,1.2,2.4
		c0.2,0.8,0.4,1.5,0.6,2.3c0.2,0.8,0.3,1.6,0.4,2.4c0.1,0.7,0.1,1.3,0.2,2c-0.2,0.3-0.3,0.6-0.4,0.9c-0.1,0.3-0.2,0.7-0.3,1.1
		c-0.3-0.8-0.3-1.6-0.2-2.5c-0.2,0.3-0.3,0.7-0.4,1c0-0.1,0-0.2,0-0.3c0-0.5,0-1.1,0-1.6c-0.1-0.9-0.2-1.8-0.3-2.7c-0.2-1-0.5-2-1-3
		c-0.2-0.4-0.5-0.9-0.9-1.2c-0.4-0.3-0.8-0.6-1.2-0.6c-0.7,0-1.3,0.2-1.8,0.7c-0.3,0.3-0.5,0.7-0.7,1.1c-0.3,0.7-0.3,1.4-0.2,2.1
		c0.1,0.9,0.3,1.8,0.6,2.7c0.6,2.1,1.6,3.9,2.8,5.7c0.4,0.6,0.8,1.1,1.3,1.5c0.3,0.2,0.4,0.2,0.6-0.1c0.2-0.4,0.4-0.8,0.5-1.2
		c0.1-0.3,0.1-0.6,0.2-0.8c0.1,0.2,0.1,0.5,0.2,0.7c0.2,0.3,0.3,0.7,0.6,0.9c0,0,0,0.1,0,0.1c-0.1,0.3,0,0.7,0,1
		c0.1,0.3,0.2,0.7,0.3,1c0.1,0.2,0.2,0.4,0.3,0.6c-0.1-0.3,0-0.7,0-1c0.1-0.3,0.2-0.6,0.4-0.9c-0.1,1.2,0.1,2.4,0.5,3.5
		c0,0,0,0,0-0.1c0-0.6,0-1.2,0.1-1.8c0-0.4,0.1-0.7,0.3-1.1c0.1-0.2,0.2-0.4,0.4-0.5c0.1,0,0.1,0,0.1,0c0.2,0.4,0.4,0.9,0.4,1.4
		c0.1,0.3,0.1,0.6,0,0.9c0,0,0,0,0,0.1c0,0,0,0,0.1,0c0.4-0.6,0.8-1.2,0.9-2c0-0.2,0-0.4,0-0.6c0-0.2-0.1-0.4-0.1-0.5l0,0
		c0.2,0.2,0.4,0.4,0.6,0.6c0.3,0.4,0.6,0.9,0.7,1.4c0.1,0.3,0.1,0.5,0.1,0.8c0,0.2-0.1,0.3-0.1,0.5c0,0,0,0,0,0l0,0l0,0
		c0,0,0-0.1,0.1-0.1c0.2-0.4,0.4-0.9,0.5-1.4c0.1-0.4,0.2-0.8,0.2-1.3c0-0.1,0-0.1,0-0.2c0.1,0,0.1,0.1,0.2,0.2
		c0.2,0.2,0.2,0.5,0.3,0.8c0,0.2,0.1,0.4,0.1,0.6c0-0.1,0.1-0.2,0.1-0.3c0.2-0.5,0.3-1.1,0.2-1.7c0-0.3-0.1-0.5-0.3-0.7
		c0-0.1,0-0.1,0-0.1c0.1-0.1,0.1-0.3,0.2-0.4c0,0,0,0,0,0c0.1,0.5,0.3,1,0.5,1.5c0.2,0.3,0.3,0.3,0.6,0.1c0.3-0.3,0.6-0.6,0.9-1
		c0.8-1.1,1.5-2.2,2.1-3.4c0.7-1.5,1.2-3,1.5-4.6c0.1-0.7,0.2-1.5,0.1-2.2c-0.1-0.6-0.3-1.2-0.6-1.6c-0.4-0.5-0.8-0.7-1.4-0.8
		c-0.6-0.1-1.1,0-1.6,0.3c-0.3,0.2-0.5,0.5-0.7,0.8c-0.4,0.6-0.7,1.3-1,2.1c-0.2,0.7-0.4,1.5-0.5,2.2c-0.1,0.6-0.1,1.1-0.2,1.7
		c0,0.3,0,0.5,0,0.8c0,0.4,0,0.9,0,1.3c0,0.3,0.1,0.6,0,0.9c-0.1-0.2-0.1-0.3-0.2-0.5c0-0.1-0.1-0.2-0.1-0.3c0,0.3,0,0.6,0,0.8
		c0,0.3,0,0.5-0.1,0.8c-0.1,0.2-0.2,0.4-0.5,0.5c-0.1,0-0.1,0-0.1-0.1c-0.1-0.2-0.1-0.4,0-0.6c0.1-0.3,0.2-0.6,0.3-0.8
		c0,0,0,0,0-0.1c0,0-0.1,0-0.1,0c-0.2,0-0.4,0.1-0.6,0.1c0.1-0.8,0.1-1.6,0.2-2.4c0.1-0.8,0.2-1.6,0.3-2.4c0.2-1.2,0.5-2.4,0.9-3.6
		c0.3-0.8,0.7-1.6,1.3-2.3c0.7-0.7,1.5-1,2.4-0.8c0.8,0.1,1.5,0.5,2,1c0.9,0.8,1.3,1.9,1.4,3.1c0,0.3,0,0.6,0,0.9
		c0,0.3,0,0.6-0.1,0.9c-0.1,0.9-0.3,1.8-0.6,2.6c-0.6,2.1-1.6,4.1-2.6,6.1c-0.2,0.3-0.3,0.6-0.5,0.9c-0.1,0.2-0.1,0.3,0.1,0.5
		c0,0,0,0,0.1,0c0.3,0.2,0.5,0.5,0.7,0.7c0.5,0.6,0.7,1.2,0.9,2c0.1,0.5,0.2,1.1,0.1,1.7c0,0.4-0.1,0.8-0.1,1.3
		c-0.1,0.5-0.1,0.9-0.2,1.4c-0.1,0.6-0.2,1.2-0.2,1.7c-0.1,0.7-0.2,1.5-0.4,2.2c-0.1,0.7-0.2,1.4-0.3,2.1c-0.1,0.5-0.1,1-0.3,1.5
		c-0.2,1-0.6,1.9-0.9,2.8c0,0,0-0.1,0-0.1c-0.1-0.1-0.1-0.3-0.2-0.4c-0.4-0.9-1-1.7-1.7-2.5c-0.6-0.6-1.2-1.1-1.9-1.6
		c-0.8-0.5-1.6-0.8-2.5-0.9c-0.6-0.1-1.2,0-1.8,0.3c-0.7,0.3-1.3,0.7-1.8,1.2c-0.7,0.7-1.3,1.4-1.8,2.2c-0.4,0.7-0.7,1.4-1,2.1
		c-0.1,0.3-0.1,0.7-0.2,1c0,0.1,0,0.1-0.1,0.2c0,0,0-0.1,0-0.1c-0.3-0.7-0.6-1.4-0.9-2.1c-0.2-0.6-0.5-1.2-0.6-1.8
		c-0.2-0.7-0.2-1.4-0.2-2.2c0-0.5-0.1-0.9-0.1-1.4c0-0.4-0.1-0.8-0.1-1.1c-0.1-0.5-0.1-1-0.1-1.5c0-0.6-0.1-1.2-0.1-1.8
		c0-0.5-0.1-1.1-0.1-1.6c0-0.6,0-1.2,0.1-1.7c0.2-1,0.7-1.9,1.4-2.8c0.2-0.2,0.4-0.4,0.6-0.6c0.1-0.1,0.1-0.2,0.1-0.4
		c0,0,0-0.1,0-0.1c-0.7-1.3-1.4-2.6-2-3.9c-0.7-1.6-1.4-3.3-1.7-5.1c-0.1-0.6-0.2-1.3-0.2-1.9c0,0,0,0,0-0.1v-0.3c0,0,0,0,0,0
		c0-0.2,0-0.4,0-0.6c0.1-0.6,0.2-1.2,0.5-1.8c0.5-1.1,1.5-1.7,2.6-2C76.7,116.8,76.9,116.8,77,116.8z M87,142.7c0.1,0,0.2,0,0.3,0
		c0.1,0,0.2,0,0.3,0c1.2-0.2,2.2-0.7,3-1.6c0.6-0.6,0.7-1.3,0.5-2c-0.3-1-0.9-1.7-1.8-2.3c-0.5-0.3-1-0.4-1.6-0.2
		c-0.4,0.1-0.8,0.4-1.1,0.7c-0.7,0.7-1.2,1.7-1.4,2.7c-0.2,0.8,0,1.5,0.3,2.2c0.2,0.3,0.4,0.5,0.8,0.6
		C86.5,142.8,86.8,142.7,87,142.7z M81.4,142.8c0.1,0,0.1,0,0.2,0c0.4,0,0.8-0.1,1-0.5c0.2-0.4,0.4-0.8,0.4-1.3c0-0.5-0.1-1-0.2-1.5
		c-0.3-1.2-1-2.1-2.2-2.8c-0.4-0.2-0.8-0.3-1.2-0.2c-0.6,0.1-1,0.5-1.5,0.9c-0.4,0.4-0.7,1-1,1.6c-0.3,0.7-0.2,1.3,0.3,1.9
		c0.3,0.3,0.6,0.6,0.9,0.9C79.2,142.5,80.3,142.7,81.4,142.8L81.4,142.8z"/>
	<path class="st35" d="M90.6,150.3c0,0.2,0.1,0.3,0.1,0.5c0.2,1,0,1.9-0.6,2.6c-0.7,1-1.7,1.6-2.9,2c-0.6,0.2-1.2,0.3-1.8,0.3
		c0,0-0.1,0-0.1,0H84c0,0,0,0-0.1,0c-0.8,0-1.6-0.1-2.4-0.2c-0.7-0.1-1.3-0.3-1.9-0.6c-1.3-0.6-2-1.7-2-3.2c0,0,0-0.1,0-0.1
		c0.1-0.3,0.1-0.7,0.2-1c0.2-0.7,0.5-1.5,1-2.1c0.5-0.8,1.1-1.5,1.8-2.2c0.5-0.5,1.1-0.9,1.8-1.2c0.6-0.2,1.2-0.3,1.8-0.3
		c0.9,0.1,1.7,0.4,2.5,0.9c0.7,0.4,1.4,1,1.9,1.6c0.7,0.7,1.3,1.6,1.7,2.5C90.4,149.9,90.5,150.1,90.6,150.3
		C90.6,150.2,90.6,150.3,90.6,150.3z M88.5,152.2C88.5,152.2,88.5,152.3,88.5,152.2c-0.7,0.5-1.3,0.9-2,1.2c-1,0.5-2.1,0.6-3.2,0.4
		c-0.9-0.2-1.8-0.5-2.6-0.9c-0.4-0.2-0.7-0.4-1-0.6l0,0l0,0c0,0.1,0,0.1,0.1,0.1c0.8,1,1.8,1.7,2.9,2.1c0.9,0.3,1.9,0.4,2.8,0.1
		c1.1-0.3,2-0.9,2.6-1.8C88.3,152.6,88.5,152.4,88.5,152.2C88.5,152.2,88.5,152.2,88.5,152.2C88.6,152.2,88.5,152.2,88.5,152.2
		L88.5,152.2z M88.9,149.3c0-0.1,0-0.3-0.1-0.4c-0.1-0.2-0.3-0.4-0.6-0.5c-0.5-0.3-1.1-0.3-1.5,0.1c-0.2,0.2-0.3,0.5-0.3,0.8
		c0,0.6-0.2,1.1-0.5,1.6c-0.2,0.3-0.3,0.5-0.5,0.8c-0.1,0.1-0.1,0.3,0.1,0.4c0.1,0.1,0.2,0,0.3,0c0.8-0.3,1.6-0.7,2.3-1.3
		C88.6,150.4,88.8,149.9,88.9,149.3L88.9,149.3z M79.8,149.5c0,0.2,0.1,0.4,0.2,0.6c0.2,0.4,0.6,0.7,1,1c0.5,0.4,1.1,0.6,1.6,0.9
		c0.1,0.1,0.2,0.1,0.3,0.1c0.1,0,0.2,0,0.3-0.1c0.1,0,0.1-0.1,0.1-0.2c0-0.1-0.1-0.2-0.2-0.2c0,0-0.1-0.1-0.1-0.1
		c0-0.1,0-0.1-0.1-0.2c0,0-0.1-0.1-0.1-0.1c-0.4-0.6-0.6-1.2-0.7-1.9c0-0.7-0.6-1.2-1.3-1.1C80.4,148.3,79.8,148.9,79.8,149.5
		L79.8,149.5z"/>
	<path class="st35" d="M94.8,121L94.8,121l0,0.9l0,0h0C94.8,121.6,94.8,121.3,94.8,121z"/>
	<path class="st36" d="M80.4,130c-0.1,0.3-0.1,0.6-0.2,0.8c-0.1,0.4-0.3,0.8-0.5,1.2c-0.2,0.3-0.3,0.3-0.6,0.1
		c-0.5-0.4-0.9-1-1.3-1.5c-1.2-1.8-2.1-3.7-2.8-5.7c-0.3-0.9-0.5-1.8-0.6-2.7c-0.1-0.7-0.1-1.4,0.2-2.1c0.1-0.4,0.3-0.8,0.7-1.1
		c0.5-0.4,1.1-0.7,1.8-0.7c0.5,0,0.9,0.3,1.2,0.6c0.4,0.3,0.6,0.8,0.9,1.2c0.5,0.9,0.8,1.9,1,3c0.2,0.9,0.3,1.8,0.3,2.7
		c0,0.5,0,1.1,0,1.6c0,0.1,0,0.2,0,0.3c0,0,0,0.1,0,0.1c-0.1,0.5-0.2,1-0.2,1.6C80.3,129.6,80.4,129.8,80.4,130z"/>
	<path class="st36" d="M87.7,128.5c0-0.3,0-0.6,0-0.9c0-0.4,0-0.9,0-1.3c0-0.3,0-0.5,0-0.8c0-0.6,0.1-1.1,0.2-1.7
		c0.1-0.8,0.3-1.5,0.5-2.2c0.2-0.7,0.5-1.4,1-2.1c0.2-0.3,0.4-0.5,0.7-0.8c0.5-0.4,1-0.5,1.6-0.3c0.6,0.1,1,0.4,1.4,0.8
		c0.4,0.5,0.6,1,0.6,1.6c0.1,0.7,0,1.5-0.1,2.2c-0.3,1.6-0.8,3.2-1.5,4.6c-0.6,1.2-1.3,2.4-2.1,3.4c-0.3,0.3-0.6,0.7-0.9,1
		c-0.3,0.3-0.4,0.2-0.6-0.1c-0.3-0.5-0.4-1-0.5-1.5c0,0,0,0,0,0c0.1-0.4,0.1-0.7,0-1.1C87.9,129.1,87.8,128.8,87.7,128.5z"/>
	<path class="st37" d="M87.7,128.5c0.1,0.3,0.2,0.6,0.2,0.9c0.1,0.4,0.1,0.7,0,1.1c0,0.1-0.1,0.3-0.2,0.4c0,0,0,0.1,0,0.1
		c0.1,0.2,0.2,0.5,0.3,0.7c0.1,0.6,0,1.1-0.2,1.7c0,0.1-0.1,0.2-0.1,0.3c0-0.2-0.1-0.4-0.1-0.6c-0.1-0.3-0.1-0.6-0.3-0.8
		c-0.1-0.1-0.1-0.1-0.2-0.2c0,0.1,0,0.1,0,0.2c0,0.4-0.1,0.9-0.2,1.3c-0.1,0.5-0.3,0.9-0.5,1.4c0,0,0,0.1-0.1,0.1l0,0
		c0-0.2,0-0.3,0.1-0.5c0-0.3,0-0.5-0.1-0.8c-0.1-0.5-0.4-1-0.7-1.4c-0.2-0.2-0.4-0.4-0.6-0.6l0,0l0,0c0,0.2,0.1,0.4,0.1,0.5
		c0,0.2,0,0.4,0,0.6c-0.1,0.7-0.5,1.4-0.9,2c0,0,0,0.1-0.1,0c0,0,0,0,0-0.1c0.1-0.3,0-0.6,0-0.9c-0.1-0.5-0.3-0.9-0.4-1.4
		c0-0.1-0.1-0.1-0.1,0c-0.2,0.1-0.3,0.3-0.4,0.5c-0.2,0.3-0.2,0.7-0.3,1.1c-0.1,0.6-0.1,1.2-0.1,1.8c0,0,0,0,0,0.1
		c-0.4-1.2-0.6-2.3-0.5-3.5c-0.2,0.3-0.3,0.6-0.4,0.9c-0.1,0.3-0.1,0.6,0,1c-0.1-0.2-0.2-0.4-0.3-0.6c-0.1-0.3-0.2-0.7-0.3-1
		c-0.1-0.3-0.1-0.7,0-1c0,0,0-0.1,0-0.1c-0.4-0.2-0.5-0.6-0.6-0.9c-0.1-0.2-0.1-0.5-0.2-0.7c0-0.2-0.1-0.4-0.1-0.6
		c0-0.5,0.1-1,0.2-1.6c0,0,0-0.1,0-0.1c0.1-0.3,0.2-0.7,0.4-1c0,0.8,0,1.7,0.2,2.5c0-0.4,0.1-0.7,0.3-1.1c0.1-0.3,0.2-0.6,0.4-0.9
		c0,0,0,0.1,0,0.1c0,0,0,0,0,0c0,0.2,0,0.5,0,0.7c0,0.1,0,0.2,0.1,0.4c0.1,0.3,0.2,0.5,0.3,0.8c0.2-0.5,0.3-1,0.2-1.5l0,0
		c0.1,0.1,0.2,0.3,0.4,0.4c0.1,0.2,0.3,0.4,0.4,0.6c0.1,0.2,0.2,0.4,0.3,0.6c0.1-0.5,0.3-1.1,0.6-1.6c0.1,0.6,0.2,1.2,0.5,1.7
		c0.1-0.1,0.1-0.2,0.2-0.3c0.2-0.4,0.3-0.9,0.3-1.3c0-0.1-0.1-0.2-0.1-0.3l0,0c0.3,0.5,0.5,0.9,0.7,1.5c0.1-0.1,0.1-0.2,0.2-0.3
		c0.1-0.2,0.3-0.3,0.5-0.4c0.2-0.1,0.4-0.1,0.6-0.1c0,0,0.1,0,0.1,0c0,0,0,0,0,0.1c-0.2,0.3-0.3,0.5-0.3,0.8c0,0.2,0,0.4,0,0.6
		c0,0.1,0.1,0.1,0.1,0.1c0.3-0.1,0.4-0.3,0.5-0.5c0.1-0.3,0.1-0.5,0.1-0.8c0-0.3,0-0.6,0-0.8c0,0.1,0.1,0.2,0.1,0.3
		C87.5,128.2,87.6,128.3,87.7,128.5z"/>
	<path class="st18" d="M87,142.7c-0.3,0-0.5,0-0.8,0c-0.4,0-0.6-0.2-0.8-0.6c-0.3-0.7-0.5-1.4-0.3-2.2c0.2-1,0.7-1.9,1.4-2.7
		c0.3-0.3,0.7-0.6,1.1-0.7c0.6-0.2,1.1-0.1,1.6,0.2c0.9,0.5,1.5,1.3,1.8,2.3c0.2,0.8,0,1.5-0.5,2c-0.8,0.9-1.9,1.4-3,1.6
		c-0.1,0-0.2,0-0.3,0S87.1,142.7,87,142.7z M87.4,142.6c0.2,0,0.3,0,0.5,0c0.6-0.1,1-0.5,1.2-1.1c0.1-0.2,0.2-0.4,0.1-0.7
		c0-0.3-0.3-0.4-0.5-0.3c-0.1,0-0.1,0.1-0.2,0.1c-0.1,0-0.1,0.1-0.2,0.1c-0.3,0.1-0.5,0-0.7-0.3c-0.2-0.2-0.2-0.4,0-0.7
		c0.1-0.1,0.1-0.1,0.2-0.2c0.2-0.2,0.1-0.6-0.2-0.6c-0.3-0.1-0.6,0-1,0.1c-0.6,0.2-1,0.6-1.1,1.2c-0.1,0.5-0.1,0.9,0.1,1.4
		c0.2,0.4,0.5,0.7,1,0.9C86.9,142.6,87.1,142.6,87.4,142.6L87.4,142.6z"/>
	<path class="st18" d="M81.4,142.8c-1.1,0-2.2-0.3-3.2-1c-0.3-0.3-0.7-0.5-0.9-0.9c-0.4-0.6-0.5-1.2-0.3-1.9c0.2-0.6,0.5-1.1,1-1.6
		c0.4-0.4,0.9-0.7,1.5-0.9c0.4-0.1,0.8,0,1.2,0.2c1.1,0.6,1.8,1.5,2.2,2.8c0.1,0.5,0.2,1,0.2,1.5c0,0.5-0.2,0.9-0.4,1.3
		c-0.2,0.4-0.6,0.5-1,0.5C81.5,142.8,81.5,142.8,81.4,142.8z M78.9,140.8c0,0.1,0,0.1,0,0.2c0,0.1,0,0.1,0,0.2
		c0.2,0.7,0.6,1.1,1.2,1.3c0.2,0.1,0.4,0,0.6,0.1c0.4,0,0.7,0,1-0.2c0.6-0.4,0.9-0.9,0.8-1.6c0-0.3-0.3-0.5-0.6-0.3
		c-0.1,0-0.1,0.1-0.2,0.1c-0.2,0.1-0.4,0.1-0.6-0.1c-0.4-0.3-0.4-0.6,0-0.9c0,0,0.1-0.1,0.1-0.1c0.1-0.1,0.1-0.3,0-0.4
		c-0.1-0.1-0.2-0.2-0.3-0.2c-0.2,0-0.4,0-0.6,0C79.5,139.1,78.9,139.8,78.9,140.8L78.9,140.8z"/>
	<path class="st37" d="M86.3,135L86.3,135L86.3,135C86.3,135,86.3,135,86.3,135L86.3,135z"/>
	<path class="st37" d="M88.9,149.3c0,0.6-0.3,1.1-0.8,1.5c-0.7,0.6-1.5,1-2.3,1.3c-0.1,0-0.2,0.1-0.3,0c-0.2-0.1-0.2-0.2-0.1-0.4
		c0.2-0.3,0.4-0.5,0.5-0.8c0.3-0.5,0.5-1,0.5-1.6c0-0.3,0.1-0.6,0.3-0.8c0.4-0.4,1-0.4,1.5-0.1c0.2,0.1,0.4,0.3,0.6,0.5
		C88.8,149,88.9,149.2,88.9,149.3z"/>
	<path class="st37" d="M79.8,149.5c0-0.6,0.5-1.2,1.1-1.3c0.7-0.1,1.3,0.4,1.3,1.1c0,0.7,0.2,1.3,0.7,1.9c0,0,0.1,0.1,0.1,0.1
		c0,0,0.1,0.1,0.1,0.2c0,0,0,0.1,0.1,0.1c0.1,0.1,0.1,0.2,0.2,0.2c0,0.1,0,0.2-0.1,0.2c-0.1,0.1-0.2,0.1-0.3,0.1
		c-0.1,0-0.2-0.1-0.3-0.1c-0.6-0.3-1.1-0.6-1.6-0.9c-0.4-0.3-0.7-0.6-1-1C79.9,149.9,79.8,149.7,79.8,149.5z"/>
	<path class="st18" d="M79.8,152.3c0.3,0.2,0.7,0.4,1,0.6c0.8,0.4,1.7,0.8,2.6,0.9c1.1,0.2,2.2,0.1,3.2-0.4c0.7-0.3,1.3-0.7,1.9-1.2
		c0,0,0,0,0.1-0.1l0,0c-0.1,0.2-0.2,0.3-0.3,0.5c-0.7,0.9-1.5,1.5-2.6,1.8c-0.9,0.3-1.9,0.2-2.8-0.1c-1.2-0.4-2.2-1.1-2.9-2.1
		C79.8,152.4,79.8,152.3,79.8,152.3L79.8,152.3z"/>
	<path class="st18" d="M88.5,152.2L88.5,152.2C88.6,152.2,88.6,152.2,88.5,152.2C88.6,152.2,88.5,152.2,88.5,152.2L88.5,152.2z"/>
	<path class="st18" d="M79.8,152.3L79.8,152.3L79.8,152.3L79.8,152.3z"/>
	<path class="st36" d="M84.9,127.6c0,0.1,0,0.2,0.1,0.3c0.1,0.5,0,0.9-0.3,1.3c-0.1,0.1-0.1,0.2-0.2,0.3c-0.3-0.5-0.4-1.1-0.5-1.7
		c-0.3,0.5-0.4,1-0.6,1.6c-0.1-0.2-0.2-0.4-0.3-0.6c-0.1-0.2-0.3-0.4-0.4-0.6c0.3-0.4,0.7-0.6,1.2-0.7c0,0,0.1,0,0.1,0
		c0.1,0,0.2,0,0.3,0C84.5,127.4,84.6,127.4,84.9,127.6C84.9,127.5,84.9,127.5,84.9,127.6z"/>
	<path class="st36" d="M84,125.4c-0.4-0.1-0.7-0.5-0.6-0.9s0.5-0.7,0.9-0.6c0.1,0,0.2,0.1,0.3,0.2c0.3,0.3,0.4,0.7,0.1,1.1
		c-0.1,0.2-0.3,0.3-0.5,0.3C84.2,125.4,84.1,125.4,84,125.4z"/>
	<path class="st37" d="M84,125.4c0.1,0,0.2,0,0.2,0c0,0.6,0,1.1,0,1.7c0,0.1,0,0.2,0,0.2c-0.1,0-0.2,0-0.3,0L84,125.4z"/>
	<path class="st36" d="M85.8,128.7c-0.1,0.1-0.1,0.2-0.2,0.3c-0.2-0.5-0.4-1-0.7-1.5c0.2,0.1,0.4,0.2,0.5,0.4
		C85.6,128.2,85.7,128.4,85.8,128.7C85.8,128.7,85.8,128.7,85.8,128.7z"/>
	<path class="st38" d="M81.9,128.3c-0.1-0.1-0.1-0.2-0.1-0.4c0-0.2,0-0.5,0-0.7c0,0,0,0,0,0C81.8,127.6,81.9,128,81.9,128.3z"/>
	<path class="st37" d="M82.4,127.6L82.4,127.6L82.4,127.6L82.4,127.6L82.4,127.6z"/>
	<path class="st38" d="M85,131.7L85,131.7L85,131.7L85,131.7z"/>
	<path class="st37" d="M87.4,142.6c-0.3,0-0.5,0-0.7-0.1c-0.5-0.1-0.8-0.4-1-0.9c-0.2-0.5-0.2-0.9-0.1-1.4c0.1-0.6,0.6-1,1.1-1.2
		c0.3-0.1,0.6-0.1,1-0.1c0.3,0.1,0.4,0.4,0.2,0.6c-0.1,0.1-0.1,0.1-0.2,0.2c-0.2,0.2-0.2,0.4,0,0.7c0.2,0.2,0.4,0.3,0.7,0.3
		c0.1,0,0.1-0.1,0.2-0.1c0.1,0,0.1-0.1,0.2-0.1c0.3-0.1,0.5,0,0.5,0.3c0,0.2-0.1,0.5-0.1,0.7c-0.2,0.6-0.6,1-1.2,1.1
		C87.7,142.6,87.5,142.6,87.4,142.6z"/>
	<path class="st37" d="M78.9,140.8c0-1,0.6-1.7,1.6-1.9c0.2,0,0.4,0,0.6,0c0.1,0,0.3,0.1,0.3,0.2c0.1,0.2,0.1,0.3,0,0.4
		c0,0-0.1,0.1-0.1,0.1c-0.3,0.3-0.3,0.7,0,0.9c0.2,0.1,0.4,0.2,0.6,0.1c0.1,0,0.1-0.1,0.2-0.1c0.3-0.2,0.5,0,0.6,0.3
		c0.1,0.7-0.2,1.2-0.8,1.6c-0.3,0.2-0.6,0.3-1,0.2c-0.2,0-0.4,0-0.6-0.1c-0.7-0.2-1-0.7-1.2-1.3c0-0.1,0-0.1,0-0.2
		C78.9,140.9,78.9,140.8,78.9,140.8z"/>
</g>
</svg>
