<?xml version="1.0" encoding="utf-8"?>
<!-- Generator: Adobe Illustrator 22.0.0, SVG Export Plug-In . SVG Version: 6.00 Build 0)  -->
<svg version="1.1" id="Layer_1" xmlns="http://www.w3.org/2000/svg" xmlns:xlink="http://www.w3.org/1999/xlink" x="0px" y="0px"
	 viewBox="0 0 235.7 215.6" style="enable-background:new 0 0 235.7 215.6;" xml:space="preserve">
<style type="text/css">
	.st0{fill:#F7F7F7;}
	.st1{fill:#EFE3E3;}
	.st2{fill:#4CB5AB;}
	.st3{fill:none;stroke:#333333;stroke-width:3;stroke-miterlimit:10;}
	.st4{fill:none;stroke:#535561;stroke-width:2;stroke-miterlimit:10;}
	.st5{fill:#5F4B8B;}
	.st6{fill:#FFFFFF;stroke:#F7F7F7;stroke-width:2;stroke-miterlimit:10;}
	.st7{fill:#D11F51;stroke:#FFFFFF;stroke-miterlimit:10;}
	.st8{fill:#949294;stroke:#FFFFFF;stroke-miterlimit:10;}
	.st9{opacity:0.25;enable-background:new    ;}
	.st10{fill:url(#SVGID_1_);}
	.st11{fill:url(#SVGID_2_);}
	.st12{fill:#F7A47E;}
	.st13{fill:#ECEDF7;}
	.st14{fill:#7B7578;}
	.st15{fill:#333333;}
	.st16{opacity:0.1;enable-background:new    ;}
	.st17{fill:#1A174B;}
	.st18{fill:#FFFFFF;}
	.st19{fill:#949294;}
	.st20{fill:#F4C1D3;}
	.st21{fill:#5F4A8B;}
	.st22{opacity:0.2;enable-background:new    ;}
	.st23{fill:url(#SVGID_3_);}
	.st24{fill:#EEEEEE;}
	.st25{fill:#FF5252;}
	.st26{fill:#FFFF00;}
	.st27{fill:#69F0AE;}
	.st28{opacity:0.5;fill:#5F4A8B;enable-background:new    ;}
	.st29{fill:url(#SVGID_4_);stroke:url(#SVGID_5_);stroke-width:5;stroke-miterlimit:10;}
	.st30{fill:#969396;}
	.st31{fill:#D22050;}
	.st32{fill:#282827;}
	.st33{fill:#EAEAEA;stroke:#EAEAEA;stroke-width:6;stroke-miterlimit:10;}
	.st34{fill:#563A39;}
	.st35{fill:#AF8070;}
	.st36{fill:#348FC0;}
	.st37{fill:#060707;}
	.st38{fill:#4B3938;}
	.st39{fill:none;stroke:#FFFFFF;stroke-width:0.75;stroke-miterlimit:10;}
	.st40{fill:none;stroke:#969396;stroke-width:0.75;stroke-miterlimit:10;}
	.st41{fill:none;stroke:#5F4A8B;stroke-miterlimit:10;}
	.st42{opacity:0.44;}
	.st43{fill:#008D98;}
	.st44{fill:#44B876;}
	.st45{fill:#707171;}
	.st46{fill:#D11F51;}
	.st47{fill:#663398;}
	.st48{fill:#F4F4F4;}
	.st49{opacity:0.26;}
	.st50{fill:none;}
	.st51{fill:url(#SVGID_6_);}
	.st52{fill:url(#SVGID_7_);}
	.st53{fill:url(#SVGID_8_);}
	.st54{fill:url(#SVGID_9_);}
	.st55{fill:#99356E;}
	.st56{fill:#4A6DB3;}
	.st57{fill:#F3F5FA;}
	.st58{fill:url(#SVGID_10_);}
	.st59{fill:url(#SVGID_11_);}
	.st60{fill:#F6F7F7;}
	.st61{fill:#D41D52;}
</style>
<path class="st18" d="M80.7,90.3l11.1,25.9h-2.8l-8.2-19.7l-8.3,19.7h-2.8L80.7,90.3z"/>
<path class="st18" d="M98.9,104l-1.6-2.5l5-7.7l3,0L98.9,104z M98.3,105v11.3h-2.7V105l-9.1-14.6h3.1L98.3,105z"/>
<path class="st18" d="M113.4,90.3l11.1,25.9h-2.8l-8.2-19.7l-8.3,19.7h-2.8L113.4,90.3z"/>
<polygon class="st18" points="104.3,90.3 102.7,92.9 105.9,92.9 107.5,90.3 "/>
<path class="st18" d="M68.8,102.8c-0.1-1-0.4-2.1-0.7-3.1c-0.8-2.5-2.2-4.6-4.1-6.4c-1.2-1.1-2.5-2-4-2.7c-0.2-0.1-0.3-0.1-0.5,0
	c-0.6,0.3-1.1,0.5-1.6,0.8c-1.1,0.5-2.1,1.1-3.2,1.8c-1.1,0.8-2.2,1.6-3.3,2.4c-0.3,0.2-0.6,0.5-0.9,0.7c-0.2,0.2-0.3,0.2-0.5,0
	c-0.4-0.3-0.8-0.6-1.2-0.9c-2-1.6-4.1-3-6.4-4.1c-0.5-0.2-0.9-0.4-1.4-0.7c-0.2-0.1-0.4-0.1-0.5,0c-0.1,0.1-0.2,0.1-0.2,0.1
	c-0.6,0.3-1.1,0.6-1.7,1c-1,0.7-1.9,1.4-2.7,2.3c-1,1.1-1.9,2.3-2.6,3.6c-1.1,2.2-1.6,4.6-1.7,7.1c0,0.8,0,1.5,0.1,2.3
	c0.1,0.7,0.1,1.4,0.3,2.1c0.3,1.4,0.7,2.7,1.5,3.9c0.6,1.1,1.3,2.2,2,3.2h4.7c-0.1-0.3-0.2-0.6-0.3-0.8c-0.6-1.6-1.1-3.2-1.5-4.8
	c-0.2-0.9-0.4-1.9-0.6-2.8c-0.1-0.6-0.1-1.1-0.2-1.7c0-0.3-0.1-0.6,0-1c0-0.6,0.1-1.2,0.2-1.8c0.1-0.6,0.2-1.2,0.3-1.8
	c0.3-0.9,0.8-1.8,1.5-2.4c0.8-0.7,1.8-1.2,3-1.3c0.9-0.1,1.6,0.1,2.3,0.6c0.5,0.4,0.9,0.9,1.1,1.5c0.4,0.8,0.6,1.6,0.8,2.5
	c0.3,1.2,0.4,2.4,0.4,3.6c0,0.9,0,1.7,0,2.6c0,0.9,0,1.8-0.1,2.6c0,0.9,0,4-0.2,4.8c0,0.2,0,0.2,0.2,0.2c2.1,0,4.2,0,6.3,0
	c0,0,0.1,0,0.1,0c0.1,0,0.1,0,0.1-0.1c0,0,0-0.1,0-0.1c-0.1-0.5-0.1-3.2-0.1-3.7c-0.1-0.9-0.1-1.8-0.1-2.8c0-1.2,0-2.3,0-3.5
	c0-1.1,0.1-2.2,0.3-3.3c0.1-0.8,0.3-1.6,0.6-2.3c0.3-0.7,0.7-1.4,1.2-1.9c0.6-0.6,1.4-0.9,2.2-0.9c0.4,0,0.9,0.1,1.3,0.2
	c1,0.3,1.9,0.9,2.6,1.8c0.6,0.8,1,1.8,1.1,2.9c0.1,0.8,0.2,1.6,0.2,2.4c0,0.3,0,0.7,0,1c0,0.8-0.1,1.5-0.3,2.2
	c-0.2,1.4-0.6,2.8-1,4.2c-0.4,1.3-0.9,2.7-1.4,4h4.7c0.6-0.9,1.2-1.9,1.7-2.8c0.8-1.3,1.4-2.7,1.7-4.3c0.2-1.1,0.4-2.3,0.4-3.5
	C69,104.8,68.9,103.8,68.8,102.8z"/>
<path class="st18" d="M128.4,90.5h7.2c0.5,0,1,0,1.7,0.1c0.7,0,1.3,0.1,1.9,0.2c1.4,0.3,2.7,0.7,3.9,1.4c1.2,0.7,2.3,1.5,3.2,2.6
	c0.9,1.1,1.6,2.3,2.1,3.7c0.5,1.4,0.8,2.9,0.8,4.6c0,1.6-0.2,3-0.7,4.4c-0.5,1.3-1.1,2.5-2,3.6c-0.8,1.1-1.8,2-3,2.7
	c-1.1,0.7-2.4,1.3-3.7,1.6c-0.6,0.2-1.2,0.3-1.9,0.3c-0.7,0-1.4,0.1-2.2,0.1h-7.2V90.5z M135.5,113.6c0.7,0,1.4,0,2-0.1
	c0.6,0,1.2-0.1,1.7-0.3c1.1-0.3,2.1-0.7,2.9-1.3c0.9-0.6,1.7-1.4,2.3-2.2c0.6-0.9,1.1-1.8,1.5-2.9c0.4-1.1,0.5-2.3,0.5-3.5
	c0-1.4-0.2-2.6-0.6-3.8c-0.4-1.1-0.9-2.1-1.6-3c-0.7-0.9-1.5-1.6-2.4-2.2c-0.9-0.6-2-1-3.1-1.3c-0.5-0.1-1-0.2-1.7-0.2
	c-0.6,0-1.2-0.1-1.7-0.1H131v20.9H135.5z"/>
<path class="st18" d="M160.1,89.3l11.3,26.6h-2.9l-8.4-20.2l-8.5,20.2h-2.9L160.1,89.3z"/>
<path class="st18" d="M174.9,92.8h-6.8v-2.3h16.2v2.3h-6.7v23.1h-2.6V92.8z"/>
<path class="st18" d="M192.8,89.3l11.3,26.6h-2.9l-8.4-20.2l-8.5,20.2h-2.9L192.8,89.3z"/>
</svg>
