<?xml version="1.0" encoding="utf-8"?>
<!-- Generator: Adobe Illustrator 22.0.0, SVG Export Plug-In . SVG Version: 6.00 Build 0)  -->
<svg version="1.1" id="Layer_1" xmlns="http://www.w3.org/2000/svg" xmlns:xlink="http://www.w3.org/1999/xlink" x="0px" y="0px"
	 viewBox="0 0 255.2 188.3" style="enable-background:new 0 0 255.2 188.3;" xml:space="preserve">
<style type="text/css">
	.st0{fill:#F7F7F7;}
	.st1{fill:#EFE3E3;}
	.st2{fill:#4CB5AB;}
	.st3{fill:none;stroke:#333333;stroke-width:3;stroke-miterlimit:10;}
	.st4{fill:none;stroke:#535561;stroke-width:2;stroke-miterlimit:10;}
	.st5{fill:#5F4B8B;}
	.st6{fill:#FFFFFF;stroke:#F7F7F7;stroke-width:2;stroke-miterlimit:10;}
	.st7{fill:#D11F51;stroke:#FFFFFF;stroke-miterlimit:10;}
	.st8{fill:#949294;stroke:#FFFFFF;stroke-miterlimit:10;}
	.st9{opacity:0.25;enable-background:new    ;}
	.st10{fill:url(#SVGID_1_);}
	.st11{fill:url(#SVGID_2_);}
	.st12{fill:#F7A47E;}
	.st13{fill:#ECEDF7;}
	.st14{fill:#7B7578;}
	.st15{fill:#333333;}
	.st16{opacity:0.1;enable-background:new    ;}
	.st17{fill:#1A174B;}
	.st18{fill:#FFFFFF;}
	.st19{fill:#949294;}
	.st20{fill:#F4C1D3;}
	.st21{fill:#5F4A8B;}
	.st22{opacity:0.2;enable-background:new    ;}
	.st23{fill:url(#SVGID_3_);}
	.st24{fill:#EEEEEE;}
	.st25{fill:#FF5252;}
	.st26{fill:#FFFF00;}
	.st27{fill:#69F0AE;}
	.st28{opacity:0.5;fill:#5F4A8B;enable-background:new    ;}
	.st29{fill:url(#SVGID_4_);stroke:url(#SVGID_5_);stroke-width:5;stroke-miterlimit:10;}
	.st30{fill:#969396;}
	.st31{fill:#D22050;}
	.st32{fill:#282827;}
	.st33{fill:#EAEAEA;stroke:#EAEAEA;stroke-width:6;stroke-miterlimit:10;}
	.st34{fill:#563A39;}
	.st35{fill:#AF8070;}
	.st36{fill:#348FC0;}
	.st37{fill:#060707;}
	.st38{fill:#4B3938;}
	.st39{fill:none;stroke:#FFFFFF;stroke-width:0.75;stroke-miterlimit:10;}
	.st40{fill:none;stroke:#969396;stroke-width:0.75;stroke-miterlimit:10;}
	.st41{fill:none;stroke:#5F4A8B;stroke-miterlimit:10;}
	.st42{opacity:0.44;}
	.st43{fill:#008D98;}
	.st44{fill:#44B876;}
	.st45{fill:#707171;}
	.st46{fill:#D11F51;}
	.st47{fill:#663398;}
	.st48{fill:#F4F4F4;}
	.st49{opacity:0.26;}
	.st50{fill:none;}
	.st51{fill:url(#SVGID_6_);}
	.st52{fill:url(#SVGID_7_);}
	.st53{fill:url(#SVGID_8_);}
	.st54{fill:url(#SVGID_9_);}
	.st55{fill:#99356E;}
	.st56{fill:#4A6DB3;}
	.st57{fill:#F3F5FA;}
	.st58{fill:url(#SVGID_10_);}
	.st59{fill:url(#SVGID_11_);}
	.st60{fill:#F6F7F7;}
	.st61{fill:#D41D52;}
</style>
<g>
	<path class="st18" d="M120.7,90.1c-0.2-1.2-0.4-2.4-0.8-3.5c-1-2.9-2.5-5.3-4.8-7.3c-1.4-1.3-2.9-2.3-4.6-3.2
		c-0.2-0.1-0.4-0.1-0.5,0c-0.6,0.3-1.3,0.6-1.9,0.9c-1.3,0.6-2.5,1.3-3.6,2.1c-1.3,0.9-2.6,1.8-3.8,2.8c-0.3,0.3-0.7,0.5-1,0.8
		c-0.2,0.2-0.4,0.2-0.6,0c-0.4-0.4-0.9-0.7-1.4-1.1c-2.3-1.8-4.7-3.4-7.4-4.7c-0.5-0.3-1.1-0.5-1.6-0.8c-0.2-0.1-0.4-0.1-0.6,0
		c-0.1,0.1-0.2,0.1-0.3,0.2c-0.6,0.4-1.3,0.7-1.9,1.1c-1.1,0.8-2.2,1.6-3.1,2.6c-1.2,1.2-2.2,2.6-3,4.2c-1.3,2.6-1.9,5.3-1.9,8.1
		c0,0.9,0.1,1.8,0.1,2.6c0.1,0.8,0.2,1.6,0.3,2.4c0.3,1.6,0.9,3.1,1.7,4.5c0.7,1.3,1.5,2.5,2.3,3.7h5.4c-0.1-0.3-0.2-0.6-0.3-1
		c-0.6-1.8-1.3-3.7-1.8-5.6c-0.3-1.1-0.5-2.1-0.6-3.2c-0.1-0.7-0.2-1.3-0.2-2c0-0.4-0.1-0.7,0-1.1c0.1-0.7,0.1-1.4,0.2-2
		c0.1-0.7,0.2-1.4,0.4-2c0.3-1.1,0.9-2,1.7-2.8c1-0.9,2.1-1.4,3.4-1.5c1-0.1,1.9,0.1,2.7,0.7c0.6,0.5,1,1,1.3,1.7
		c0.5,0.9,0.7,1.9,1,2.9c0.3,1.4,0.4,2.7,0.5,4.1c0,1,0,2,0,2.9c0,1-0.1,2-0.1,3c0,1-0.1,4.6-0.2,5.6c0,0.2,0,0.2,0.2,0.2
		c2.4,0,4.8,0,7.2,0c0,0,0.1,0,0.1,0c0.1,0,0.1,0,0.1-0.1c0,0,0-0.1,0-0.1c-0.1-0.6-0.1-3.7-0.1-4.3c-0.1-1.1-0.1-2.1-0.2-3.2
		c0-1.3,0-2.7,0-4c0.1-1.3,0.2-2.6,0.4-3.8c0.2-0.9,0.4-1.8,0.7-2.7c0.3-0.8,0.8-1.6,1.4-2.2c0.7-0.7,1.6-1,2.6-1
		c0.5,0,1,0.1,1.5,0.2c1.2,0.4,2.2,1,3,2c0.7,1,1.1,2.1,1.3,3.3c0.1,0.9,0.2,1.8,0.3,2.7c0,0.4,0,0.8,0,1.1
		c-0.1,0.9-0.2,1.7-0.3,2.6c-0.3,1.6-0.7,3.2-1.2,4.8c-0.5,1.5-1,3.1-1.6,4.6h5.4c0.7-1.1,1.3-2.2,2-3.3c0.9-1.5,1.6-3.2,1.9-4.9
		c0.3-1.3,0.4-2.6,0.5-4C120.8,92.3,120.8,91.2,120.7,90.1z"/>
	<g>
		<path class="st18" d="M125.2,77.3h7.9c0.5,0,1.1,0,1.9,0.1c0.7,0,1.4,0.1,2.1,0.3c1.5,0.3,3,0.8,4.3,1.5c1.3,0.7,2.5,1.7,3.5,2.9
			c1,1.2,1.8,2.5,2.4,4.1c0.6,1.5,0.9,3.3,0.9,5.1c0,1.7-0.3,3.4-0.8,4.8c-0.5,1.5-1.2,2.8-2.2,4c-0.9,1.2-2,2.2-3.3,3
			c-1.3,0.8-2.6,1.4-4.1,1.8c-0.7,0.2-1.4,0.3-2.1,0.4c-0.8,0-1.6,0.1-2.5,0.1h-8V77.3z M133,102.8c0.8,0,1.5,0,2.2-0.1
			c0.7,0,1.3-0.2,1.9-0.3c1.2-0.3,2.3-0.8,3.3-1.5c1-0.7,1.8-1.5,2.5-2.5c0.7-1,1.3-2,1.6-3.2c0.4-1.2,0.6-2.5,0.6-3.9
			c0-1.5-0.2-2.9-0.6-4.2c-0.4-1.3-1-2.4-1.7-3.3c-0.7-1-1.6-1.8-2.7-2.4c-1-0.6-2.2-1.1-3.4-1.4c-0.5-0.1-1.2-0.2-1.8-0.2
			c-0.7,0-1.3-0.1-1.9-0.1h-4.9v23H133z"/>
		<path class="st18" d="M174.7,76.2h9.1c1,0,1.9,0.1,2.7,0.2c0.9,0.2,1.7,0.4,2.3,0.7c1.3,0.7,2.4,1.7,3.3,3
			c0.9,1.3,1.3,2.9,1.3,4.8c0,1.1-0.1,2.1-0.4,3.1c-0.3,0.9-0.7,1.8-1.2,2.5c-0.5,0.7-1,1.3-1.7,1.9c-0.6,0.5-1.3,0.9-2,1.2
			c-0.6,0.2-1.3,0.3-2,0.4c-0.7,0.1-1.6,0.1-2.6,0.1h-6V105h-3V76.2z M183.7,91.5c0.8,0,1.4,0,1.9,0c0.5,0,1-0.1,1.5-0.3
			c0.5-0.2,0.9-0.4,1.3-0.8c0.4-0.4,0.8-0.8,1.1-1.3c0.3-0.5,0.6-1.1,0.8-1.8c0.2-0.7,0.3-1.4,0.3-2.1c0-1.4-0.3-2.6-0.8-3.5
			c-0.6-0.9-1.2-1.6-2.1-2c-0.9-0.5-2.2-0.8-3.8-0.8h-6.1v12.8H183.7z"/>
		<path class="st18" d="M169.5,84.9c0-4.9-4-8.9-8.9-8.9c-4.9,0-8.9,4-8.9,8.9h0v20.2h3.1V93.6h11.8v11.6h3.1V85.4
			C169.5,85.3,169.5,85.1,169.5,84.9z M154.6,90.5v-5.3c0,0,0,0,0,0c0-0.1,0-0.1,0-0.2c0-3.2,2.6-5.9,5.9-5.9c3.2,0,5.9,2.6,5.9,5.9
			h0v0.4c0,0,0,0.1,0,0.1c0,0,0,0,0,0v5.1H154.6z"/>
	</g>
</g>
</svg>
