<svg id="Layer_1" data-name="Layer 1" xmlns="http://www.w3.org/2000/svg" viewBox="0 0 69.19 68"><defs><style>.cls-1{fill:#fff;}.cls-2{fill:#162a4a;}.cls-3{fill:#83c241;}.cls-4{fill:#328c42;}</style></defs><title>elemnts oe</title><circle class="cls-1" cx="34.59" cy="34" r="33.5"/><path class="cls-2" d="M32.8,48.38a18.19,18.19,0,0,1-5-20.32c.12-.3.22-.6.33-.9l1-1.92A20.08,20.08,0,0,1,33,20.8,16.08,16.08,0,0,0,21.2,18.86a5.44,5.44,0,0,0-1.43.3c-.29.06-.62.38-.86,0a7.29,7.29,0,0,1-.73-1.38c-.05-.14.24-.19.39-.25l1.29-.47a18.65,18.65,0,0,1,9.5.06,17.44,17.44,0,0,1,4.78,2.1.75.75,0,0,0,.94,0A17.82,17.82,0,0,1,49,17a1.11,1.11,0,0,0,.26,0c.21.09.41.19.63.26,1.36.43,1.34.42.63,1.63a.59.59,0,0,1-.84.3,4.61,4.61,0,0,0-1.6-.37A16,16,0,0,0,36.3,20.81a20.76,20.76,0,0,1,3.84,4.44l1,1.91a18.08,18.08,0,0,1-1.47,17.6,18.35,18.35,0,0,1-3.16,3.6c-.14.1-.29.18-.42.29-1.47,1.15-1.47,1.15-2.93,0C33,48.53,32.92,48.46,32.8,48.38Zm.07-2.67a15.94,15.94,0,0,0-3.22-15.49c-.59-.65-.57.09-.64.33a15.93,15.93,0,0,0,.93,10.83A14.73,14.73,0,0,0,32.87,45.71Zm3.46,0a2.19,2.19,0,0,0,.31-.22,3,3,0,0,0,.31-.31,16.19,16.19,0,0,0,3.32-14.57c-.05-.2,0-.56-.31-.55s-.38.24-.52.41a15.94,15.94,0,0,0-3.35,6.46A16.29,16.29,0,0,0,36.33,45.68ZM31.05,26a15.84,15.84,0,0,0,7.15,0,15.41,15.41,0,0,0-3.27-3.76.37.37,0,0,0-.58,0A15.86,15.86,0,0,0,31.05,26Z"/><path class="cls-3" d="M32.87,45.71a14.73,14.73,0,0,1-2.93-4.33A15.93,15.93,0,0,1,29,30.55c.07-.24,0-1,.64-.33A15.94,15.94,0,0,1,32.87,45.71Z"/><path class="cls-4" d="M36.33,45.68a16.29,16.29,0,0,1-.24-8.78,15.94,15.94,0,0,1,3.35-6.46c.14-.17.34-.41.52-.41s.26.35.31.55A16.19,16.19,0,0,1,37,45.15a3,3,0,0,1-.31.31A2.19,2.19,0,0,1,36.33,45.68Z"/></svg>