<svg id="Layer_1" data-name="Layer 1" xmlns="http://www.w3.org/2000/svg" viewBox="0 0 69.19 68"><defs><style>.cls-1{fill:#fff;}.cls-2{fill:#f17d29;}</style></defs><title>elemnts oe</title><circle class="cls-1" cx="34.59" cy="34" r="33.5"/><path class="cls-2" d="M31.82,50.5c-1.38-.56-2.87-.81-4.23-1.48a16,16,0,0,1-9.11-11.38A15.94,15.94,0,0,1,23,22.24,15.69,15.69,0,0,1,34,17.5c.53,0,.64.16.61.63,0,.62.17,1.36-.11,1.83s-1.14.22-1.74.3a13.87,13.87,0,0,0-3.71,26.45,12.27,12.27,0,0,0,4.84,1.11c.56,0,.75.19.73.74s0,1.29,0,1.94Z"/><path class="cls-2" d="M34.58,36.32c.79-.82,1.47-1.53,2.16-2.23a.71.71,0,0,1,.56-.16H44c.29,0,.53,0,.54.42a10,10,0,0,1-5.74,9.8,10.47,10.47,0,0,1-12.91-3.82A11,11,0,0,1,43.11,26.69c.32.36.28.56,0,.85s-.8,1.14-1.31,1.26-.82-.71-1.25-1.09A8.26,8.26,0,0,0,27,31.5a8.83,8.83,0,0,0,6,10.87,7.24,7.24,0,0,0,8.53-4.89c.28-1,.18-1.11-.84-1.11H35.18C35,36.37,34.9,36.34,34.58,36.32Z"/><path class="cls-2" d="M41.77,20a1.47,1.47,0,0,1-1.43,1.34,1.35,1.35,0,0,1-1.26-1.47,1.28,1.28,0,0,1,1.31-1.24A1.4,1.4,0,0,1,41.77,20Z"/><path class="cls-2" d="M50,39.85a1.31,1.31,0,0,1-1.38,1.34,1.39,1.39,0,0,1-1.31-1.37,1.36,1.36,0,0,1,1.42-1.32A1.26,1.26,0,0,1,50,39.85Z"/><path class="cls-2" d="M46.67,44.78a1.26,1.26,0,0,1-1.31,1.31A1.34,1.34,0,0,1,44,44.75a1.42,1.42,0,0,1,1.41-1.35A1.34,1.34,0,0,1,46.67,44.78Z"/><path class="cls-2" d="M50,28.21a1.25,1.25,0,0,1-1.3,1.32,1.36,1.36,0,0,1-1.38-1.35,1.39,1.39,0,0,1,1.33-1.34A1.31,1.31,0,0,1,50,28.21Z"/><path class="cls-2" d="M46.67,23.23a1.33,1.33,0,0,1-1.31,1.41A1.46,1.46,0,0,1,44,23.25,1.33,1.33,0,0,1,45.34,22,1.23,1.23,0,0,1,46.67,23.23Z"/><path class="cls-2" d="M40.4,49.4a1.32,1.32,0,0,1-1.32-1.31,1.34,1.34,0,0,1,1.34-1.39A1.4,1.4,0,0,1,41.76,48,1.34,1.34,0,0,1,40.4,49.4Z"/><path class="cls-2" d="M49.79,32.68A1.33,1.33,0,0,1,51.15,34a1.38,1.38,0,0,1-1.35,1.39,1.34,1.34,0,1,1,0-2.68Z"/></svg>