<svg id="Layer_1" data-name="Layer 1" xmlns="http://www.w3.org/2000/svg" viewBox="0 0 69.19 68"><defs><style>.cls-1{fill:#fff;}.cls-2{fill:#e46e2e;}.cls-3{fill:#767474;}.cls-4{fill:#313940;}</style></defs><title>elemnts oe</title><circle class="cls-1" cx="34.59" cy="34" r="33.5"/><g id="Page-1"><g id="Artboard"><g id="Group-Copy-4-_-Group-_-Group-Copy" data-name="Group-Copy-4-+-Group-+-Group-Copy"><g id="Group-Copy-4"><path id="Fill-9" class="cls-2" d="M34.65,43.42c-5.42,0-10.13-1.94-12.59-4.82a13.38,13.38,0,0,0,25.17,0c-2.46,2.88-7.17,4.82-12.58,4.82"/><path id="Fill-10" class="cls-2" d="M34.65,24.71c5.41,0,10.12,1.95,12.58,4.82a13.38,13.38,0,0,0-25.17,0c2.46-2.87,7.17-4.82,12.59-4.82"/><path id="Fill-11" class="cls-3" d="M24.5,50.36a2.1,2.1,0,1,1,2-2.19A2.1,2.1,0,0,1,24.5,50.36Z"/><path id="Fill-12" class="cls-3" d="M22.89,23a1.31,1.31,0,1,1,1.26-1.37A1.31,1.31,0,0,1,22.89,23Z"/><path id="Fill-8" class="cls-3" d="M43.76,21.41a2,2,0,1,1,2-2.12A2,2,0,0,1,43.76,21.41Z"/><g id="Group-Copy"><path id="Fill-1" class="cls-4" d="M19.35,35.84c0,1.21-.1,1.61-.35,1.9a1.5,1.5,0,0,1-1,.39l.1.72a2.38,2.38,0,0,0,1.57-.57,2.73,2.73,0,0,0,.61-2.08V31.61h-.92v4.23"/><path id="Fill-2" class="cls-4" d="M26.26,35.29c0,.52,0,1,0,1.38h-.82l-.05-.83h0a1.91,1.91,0,0,1-1.68.94c-.8,0-1.76-.44-1.76-2.21v-3h.92v2.8c0,1,.3,1.61,1.14,1.61a1.34,1.34,0,0,0,1.22-.84,1.36,1.36,0,0,0,.09-.47v-3.1h.92v3.68"/><path id="Fill-3" class="cls-4" d="M28,33.26c0-.65,0-1.17,0-1.65h.83l0,.87h0a2,2,0,0,1,1.81-1,2.3,2.3,0,0,1,2.16,2.57,2.4,2.4,0,0,1-2.32,2.71A1.77,1.77,0,0,1,29,36h0v2.75H28V33.26Zm.91,1.35A2.18,2.18,0,0,0,29,35a1.43,1.43,0,0,0,1.39,1.07c1,0,1.54-.79,1.54-2,0-1-.53-1.88-1.51-1.88A1.48,1.48,0,0,0,29,33.37a1.51,1.51,0,0,0-.07.37v.87Z"/><path id="Fill-4" class="cls-4" d="M34.47,31.61l1.12,3c.11.33.24.73.32,1h0c.1-.3.2-.69.33-1.05l1-3h1l-1.39,3.61a7.64,7.64,0,0,1-1.75,3.16A2.57,2.57,0,0,1,34,39l-.24-.78a2.29,2.29,0,0,0,.81-.45,2.71,2.71,0,0,0,.78-1,.54.54,0,0,0,.08-.22.7.7,0,0,0-.07-.24l-1.88-4.66h1"/><path id="Fill-5" class="cls-4" d="M40.68,30.16v1.45H42v.7H40.68V35c0,.62.18,1,.7,1a2.08,2.08,0,0,0,.53-.06l.05.69a2.41,2.41,0,0,1-.82.12,1.27,1.27,0,0,1-1-.38,1.86,1.86,0,0,1-.36-1.32V32.31H39v-.7h.79V30.4l.9-.24"/><path id="Fill-6" class="cls-4" d="M43.71,34.31a1.63,1.63,0,0,0,1.75,1.75,3.33,3.33,0,0,0,1.41-.26l.16.66a4.28,4.28,0,0,1-1.7.31,2.36,2.36,0,0,1-2.5-2.55,2.46,2.46,0,0,1,2.39-2.72,2.14,2.14,0,0,1,2.1,2.38,3.73,3.73,0,0,1,0,.43Zm2.72-.66a1.3,1.3,0,0,0-1.28-1.49,1.53,1.53,0,0,0-1.43,1.49Z"/><path id="Fill-7" class="cls-4" d="M48.68,33.19c0-.6,0-1.11,0-1.58h.81l0,1h0a1.53,1.53,0,0,1,1.41-1.1,1.12,1.12,0,0,1,.27,0v.87a1,1,0,0,0-.32,0,1.31,1.31,0,0,0-1.24,1.18,2.86,2.86,0,0,0,0,.43v2.7h-.92V33.19"/></g></g></g></g></g></svg>