<svg id="Layer_1" data-name="Layer 1" xmlns="http://www.w3.org/2000/svg" viewBox="0 0 69.19 68"><defs><style>.cls-1{fill:#fff;}</style></defs><title>elemnts oe</title><circle class="cls-1" cx="34.59" cy="34" r="33.5"/><path d="M36.24,38.63l-1.86-1.07a16.2,16.2,0,0,1-1.57,1.19,18.3,18.3,0,0,1-1.88.82v2.16c2.63,1.12,3.8,3,3.3,5.22a4.36,4.36,0,0,1-8.58-.23c-.38-2.14.87-4,3.36-5V39.54c-.19-.07-.4-.15-.63-.22a5.63,5.63,0,0,1-4-5.17A5.42,5.42,0,0,1,28,28.76c.87-.29,1.16-.67,1-1.52a6.16,6.16,0,0,1,0-1c-2.64-1.1-3.83-2.94-3.36-5.15a4.36,4.36,0,0,1,8.58.08c.4,2.18-.81,4-3.36,5.06v2.16a18.27,18.27,0,0,1,1.81.78,16.6,16.6,0,0,1,1.66,1.24l1.85-1.07c-.38-2.84.64-4.8,2.85-5.53a4.36,4.36,0,0,1,4.17,7.48c-1.72,1.45-3.93,1.33-6.09-.37l-1.75,1v4.19l1.7,1c2.08-1.83,4.59-1.84,6.39-.13a4.35,4.35,0,0,1-4.57,7.19C36.81,43.32,35.83,41.37,36.24,38.63ZM27.05,33.9a2.92,2.92,0,1,0,3-2.88A2.95,2.95,0,0,0,27.05,33.9ZM32,21.9a2,2,0,1,0-4-.09,2,2,0,0,0,2,2.06A2,2,0,0,0,32,21.9Zm8.54,8a2,2,0,0,0,2-2,2,2,0,1,0-4,.1A2,2,0,0,0,40.5,29.89ZM38.44,40.05a2,2,0,1,0,4-.07,2,2,0,0,0-2-2A2,2,0,0,0,38.44,40.05Zm-8.44,8a2,2,0,0,0-.07-4,2,2,0,0,0,.07,4Z"/></svg>