<svg id="Layer_1" data-name="Layer 1" xmlns="http://www.w3.org/2000/svg" viewBox="0 0 69.19 68"><defs><style>.cls-1{fill:#fff;}.cls-2{fill:#80c464;}.cls-3{fill:#7bc25c;}.cls-4{fill:#79c25a;}.cls-5{fill:#7ac25a;}.cls-6{fill:#412f1f;}.cls-7{fill:#3f271c;}.cls-8{fill:#3e251b;}.cls-9{fill:#4c9144;}.cls-10{fill:#4f9546;}.cls-11{fill:#5aa84d;}.cls-12{fill:#529849;}.cls-13{fill:#52a549;}.cls-14{fill:#66ad55;}.cls-15{fill:#549a4a;}.cls-16{fill:#6db15b;}.cls-17{fill:#61ab51;}.cls-18{fill:#74b461;}.cls-19{fill:#78b765;}.cls-20{fill:#7db96a;}.cls-21{fill:#82bc70;}.cls-22{fill:#87be75;}.cls-23{fill:#b7b497;}.cls-24{fill:#a6a784;}.cls-25{fill:#c0bda4;}.cls-26{fill:#402f1f;}.cls-27{fill:#d5d2c2;}</style></defs><title>elemnts oe</title><circle class="cls-1" cx="34.59" cy="34" r="33.5"/><path class="cls-2" d="M37.78,16.52h.57a40.84,40.84,0,0,1,6.86,1.18c.73.23,1.44.51,2.17.74,2.4.72,3.5,2.45,3.87,4.83A21.77,21.77,0,0,1,51.43,30c-.08,0-.13-.13-.13-.11.06.21,0,.45.08.65a18.83,18.83,0,0,1-5.06,11.12A30.88,30.88,0,0,1,35.39,49.3a1.64,1.64,0,0,1-1.37.1C28,46.85,23,43.11,19.76,37.29a18.16,18.16,0,0,1-2.12-8.08,20,20,0,0,0,0-3.63,13,13,0,0,1,1.1-4.9,3.52,3.52,0,0,1,1.7-1.62,24.26,24.26,0,0,1,8.63-2.31,12.16,12.16,0,0,1,2.76-.17,43.57,43.57,0,0,0,5.36,0Z"/><path class="cls-3" d="M37.19,16.58a18.51,18.51,0,0,1-5.36,0l2.48-.07Z"/><path class="cls-4" d="M17.64,25.58a8.24,8.24,0,0,1,0,3.63A24.44,24.44,0,0,1,17.64,25.58Z"/><path class="cls-5" d="M51.38,30.56c-.22-.19-.16-.44-.15-.67s.08-.13.15,0a.69.69,0,0,1,0,.17Z"/><path class="cls-6" d="M42,19.46A17.22,17.22,0,0,1,47.1,21a2,2,0,0,1,1.14,1.32,15.68,15.68,0,0,1,.65,4.24,3,3,0,0,0,0,1.52A17.68,17.68,0,0,1,44.42,40a28.32,28.32,0,0,1-9.12,6.71,1.27,1.27,0,0,1-1.18.12c-5-2.36-9.3-5.6-12-10.6a16.62,16.62,0,0,1-1.86-7.75,5.4,5.4,0,0,0,0-2.3,12.22,12.22,0,0,1,.26-2.56,3.34,3.34,0,0,1,2.64-3.12c1.37-.37,2.74-.69,4.13-1a39.63,39.63,0,0,1,9-.62,23.25,23.25,0,0,1,5.12.53c-.09.11-.18.15-.29,0a.2.2,0,0,0,.2.08A1.26,1.26,0,0,0,42,19.46Z"/><path class="cls-7" d="M20.3,26.15a3,3,0,0,1,0,2.3A11.79,11.79,0,0,1,20.3,26.15Z"/><path class="cls-8" d="M48.9,28.06a1.53,1.53,0,0,1,0-1.52C48.9,27.05,48.9,27.55,48.9,28.06Z"/><path class="cls-7" d="M42,19.46c-.19.22-.44.15-.67.14,0,0-.06-.06-.09-.1l.24-.1Z"/><path class="cls-9" d="M40.24,35.73A10.8,10.8,0,0,1,36.52,41c-.35.28-.68.58-1,.86a1.28,1.28,0,0,1-.64-.75,6.07,6.07,0,0,1-.42-1.57,3.69,3.69,0,0,1,0-.47,14.39,14.39,0,0,1,.18-3.21c0-.31-.16-.63.06-.93,1.52-.46,3.12-.48,4.68-.8.84-.17,1,.15.89,1C40.22,35.36,40.13,35.55,40.24,35.73Z"/><path class="cls-10" d="M40.24,35.73c-.05-.08-.13-.15-.14-.24-.1-1.27-.23-1.36-1.55-1a14.65,14.65,0,0,1-3.84.48,31.73,31.73,0,0,1,0-5.6c.27-.38.44-.12.52.13.18.56.57.55,1.06.49a37.62,37.62,0,0,1,4-.42A10.48,10.48,0,0,1,40.24,35.73Z"/><path class="cls-11" d="M28.76,29.8a4.1,4.1,0,0,1,.55-1.93c.56,0,.59.5.72.86,1.18,3.17,2.43,6.32,3.55,9.52a11.86,11.86,0,0,1,1,2.58c0,.42,0,.89-.49,1.07a6.59,6.59,0,0,1-1.34-1.13c-1.38-3.34-2.6-6.74-3.87-10.12A6.18,6.18,0,0,1,28.76,29.8Z"/><path class="cls-12" d="M40.29,29.58c-.26.59-.84.27-1.23.34-1.05.19-2.13.22-3.19.45s-.59-.82-1-1.15A2.84,2.84,0,0,1,34.77,27,1.65,1.65,0,0,1,36,26.45a12.5,12.5,0,0,1,2.72-.34A8.67,8.67,0,0,1,40.29,29.58Z"/><path class="cls-13" d="M28.76,29.8l2.52,6.56c.49,1.3,1,2.61,1.46,3.91.06.17.23.34,0,.5A11,11,0,0,1,28.57,34c-.05-.21,0-.44-.19-.63a4,4,0,0,1,0-2C28.72,30.9,28.4,30.27,28.76,29.8Z"/><path class="cls-14" d="M34.89,35.75a19,19,0,0,0-.19,3.45c-.49,0-.53-.4-.64-.7-1.3-3.62-2.75-7.19-4.11-10.79a1.41,1.41,0,0,1-.05-1.19,2.61,2.61,0,0,1,.76-1.35c.81,2,1.53,4.11,2.34,6.15.52,1.3,1,2.6,1.48,3.94A.72.72,0,0,0,34.89,35.75Z"/><path class="cls-15" d="M38.76,26.11a21,21,0,0,1-3.86.81c-.39-.39-.18-1-.4-1.39a2.15,2.15,0,0,1,0-.34c0-1-.06-2,0-3a1.39,1.39,0,0,1,.29-1.07c.94,1.52,2.51,2.49,3.51,4A2.92,2.92,0,0,1,38.76,26.11Z"/><path class="cls-16" d="M34.71,25.56c.35.41.11.91.19,1.36v2.3c0,1.55,0,3.1,0,4.66a2.08,2.08,0,0,1-.19,1.1l.18.77c-.18.09-.37.52-.54,0-1-3.25-2.43-6.35-3.57-9.55a4.15,4.15,0,0,1-.12-1,1.76,1.76,0,0,1,.57-.8,27.06,27.06,0,0,1,1.59,4c.59,1.44,1.1,2.9,1.66,4.32,0-.35,0-.72,0-1.1,0-.54,0-1.08,0-1.62,0-.75,0-1.51,0-2.27S34.21,26.21,34.71,25.56Z"/><path class="cls-17" d="M29.9,26.52a20.59,20.59,0,0,0,1.49,4.36c.81,1.95,1.48,3.94,2.29,5.89a10.18,10.18,0,0,0,1,2.43v.42c-.34.31.36,1-.36,1.14L32.93,37l-3.12-8.28a1.8,1.8,0,0,0-.5-.89A1.73,1.73,0,0,1,29.9,26.52Z"/><path class="cls-18" d="M34.7,31.72v1.56l-.21,0c-.43-1.07-.86-2.14-1.27-3.22-.61-1.62-1.21-3.26-1.8-4.89a7.18,7.18,0,0,1-.19-.83,1.66,1.66,0,0,1,.59-.72,6,6,0,0,1,1.12,2.49A24.8,24.8,0,0,1,34.7,31.72Z"/><path class="cls-19" d="M34.7,31.72l-2.88-8.07a1.64,1.64,0,0,1,.57-.6A23.64,23.64,0,0,1,34.7,30Z"/><path class="cls-20" d="M34.7,30a56.65,56.65,0,0,0-2.17-6.1,3.28,3.28,0,0,1-.14-.84,1.15,1.15,0,0,1,.59-.54,16.58,16.58,0,0,1,1.72,5.17Z"/><path class="cls-21" d="M34.7,27.68c-.42-1.77-1.45-3.35-1.72-5.17a.87.87,0,0,1,.56-.43,7.18,7.18,0,0,1,1.15,3.29l0,.19C34.71,26.27,34.7,27,34.7,27.68Z"/><path class="cls-22" d="M34.69,25.37l-1.15-3.29c.22-.38.65-.57.83-1,.1-.22.24-.08.33.07C34.69,22.56,34.69,24,34.69,25.37Z"/><path class="cls-23" d="M35.07,41.14c.14.25.44.4.44.73a4.08,4.08,0,0,0-.27,2c0,.32.23.69-.15,1a1,1,0,0,1-.17-.25,3.45,3.45,0,0,1-.08-1.06c0-.31.13-.6.17-.86-.18.17,0,.75-.54.66-.23-.28-.11-.62-.19-.93C34.4,41.84,34.46,41.31,35.07,41.14Z"/><path class="cls-24" d="M35.07,41.14c-.37.32-.36.91-.79,1.19-.07-.14-.13-.28-.2-.43a1.75,1.75,0,0,0,.25-1.14c.37-.3,0-.85.36-1.14C34.82,40.12,34.94,40.63,35.07,41.14Z"/><path class="cls-25" d="M35.09,44.59v.18c-1.14-.13-.41-1-.62-1.51.34-.15.29-.58.6-.84v1C35,43.84,34.75,44.22,35.09,44.59Z"/><path class="cls-26" d="M28.38,31.37v2c0,.13,0,.25,0,.38h-.09V31C28.44,31.05,28.33,31.24,28.38,31.37Z"/><path class="cls-27" d="M35.09,44.59c-.8-.36-.1-.75,0-1.13C35.07,43.84,35.08,44.21,35.09,44.59Z"/></svg>