<svg id="Layer_1" data-name="Layer 1" xmlns="http://www.w3.org/2000/svg" viewBox="0 0 69.19 68"><defs><style>.cls-1{fill:#fff;}.cls-2{fill:#fe6601;}</style></defs><title>elemnts oe</title><circle class="cls-1" cx="34.59" cy="34" r="33.5"/><path class="cls-2" d="M49.45,49.77c-.35,0-.7.08-1.05.08H20.8c-.35,0-.7-.05-1.05-.08l-.25-.11h0c0-.12-.06-.17-.18-.1a.13.13,0,0,1-.11-.11c.08-.13,0-.16-.1-.11a.11.11,0,0,1-.06-.07c.07-.12,0-.2-.09-.25a1.91,1.91,0,0,1-.11-1q0-14.73,0-29.45a1.8,1.8,0,0,1,.28-1.37l.18-.23,0,0,0,0,.23-.15h0a.36.36,0,0,0,.41-.17,28.61,28.61,0,0,1,4.14-.05c1,0,1.42.58,1.42,1.68,0,3.34,0,6.69,0,10,0,1.37.24,1.61,1.63,1.61.84,0,1.67,0,2.51,0,1,0,1.31-.33,1.31-1.33q0-5,0-9.93c0-1.64.42-2.06,2-2.07,1,0,1.92,0,2.89,0,1.27,0,1.78.55,1.78,1.84q0,5,0,10a1.49,1.49,0,0,0,.41,1.32l.27.15,10.91,0a.34.34,0,0,0,.43.15c0,.12.09.16.21.1s.08,0,.08.08,0,.18.12.18v0a2,2,0,0,1,.13.25,1.17,1.17,0,0,1,.13.74V48.26a1.28,1.28,0,0,1-.11.75c-.11.05-.16.13-.09.24a.12.12,0,0,1-.06.08c-.13,0-.18,0-.1.11a.13.13,0,0,1-.11.11c-.12-.07-.17,0-.18.1h0Zm-11.66-10C37.79,42.87,38,43,41,43h.1c2.84,0,3.1-.26,3.1-3.14s-.23-3.22-3.2-3.22S37.79,36.87,37.79,39.81Z"/></svg>