<svg id="Layer_1" data-name="Layer 1" xmlns="http://www.w3.org/2000/svg" viewBox="0 0 69.19 68"><defs><style>.cls-1{fill:#fff;}.cls-2{fill:#d73028;}.cls-3{fill:#a42122;}.cls-4{fill:#a42223;}.cls-5{fill:#d62f27;}.cls-6{fill:#7a1514;}.cls-7{fill:#fefdfd;}</style></defs><title>elemnts oe</title><circle class="cls-1" cx="34.59" cy="34" r="33.5"/><path class="cls-2" d="M15.35,24.57c-.19-.79.4-1,.93-1.25,1.52-.64,3-1.24,4.59-1.84,3.64-1.41,7.31-2.77,10.93-4.24a8.62,8.62,0,0,1,7,0c4.43,1.88,8.94,3.58,13.43,5.33a3.58,3.58,0,0,1,1.38.75.81.81,0,0,1,.24.84c-1.22.59-2.4,1.26-3.65,1.82-4.35,2-8.81,3.68-13.1,5.79a5.41,5.41,0,0,1-4.91.26c-3.1-1.42-6.28-2.66-9.42-4a48.35,48.35,0,0,1-7.25-3.31ZM43.8,25.78l4.82-1.87v-.22l-5-1.93L37.7,24c1.73.67,3.21,1.21,4.65,1.83A1.35,1.35,0,0,0,43.8,25.78Zm-11-7.17c0-.13-.16-.21-.22-.15s.08.18.15.26c.77,1.51.43,1.29-.76,1.76l-1.21.44a13.16,13.16,0,0,0,2.28.32,2,2,0,0,1,2,1.3,1.24,1.24,0,0,0,.62.74,1.82,1.82,0,0,1,1.75-1.81,10.77,10.77,0,0,0,2.07-.3l-.91-.34c-1.46-.56-1.46-.56-.94-2,0,0,0-.09-.11-.24a4.13,4.13,0,0,1-4.47,0C33,18.58,32.88,18.61,32.79,18.61Zm-7.5,7.3a4.2,4.2,0,0,0,2.8,0,14.66,14.66,0,0,0,2.24-.64c.52-.27,1.11-.52,1.12-1.2s-.58-1-1.12-1.2a10.3,10.3,0,0,0-5.47-.51,5.17,5.17,0,0,0-2.28.78c-.84.55-.85,1.15-.09,1.81S24.36,25.57,25.29,25.91Zm4.09,1.42v.17l5.55,2.29c.18.08.36.24.53,0L38.06,26Z"/><path class="cls-3" d="M53.85,30.8c0,1,0,2,0,3S53,35,52.4,35.51c-5.06,2.31-10.26,4.31-15.27,6.75a5.41,5.41,0,0,1-4.91.26c-3-1.36-6.08-2.57-9.12-3.85C21,37.76,18.78,37,16.73,35.9c-.56-.23-1.14-.43-1.37-1.08.36-1.14.05-2.32.16-3.47a19.25,19.25,0,0,0,2.79,1.42c4.54,1.9,9.09,3.79,13.61,5.74a5,5,0,0,0,4.35.23c2.89-1.41,5.87-2.63,8.81-3.94S51,32.35,53.85,30.8Z"/><path class="cls-4" d="M53.85,36.93c0,1.1,0,2.2,0,3.31,0,.59-.36.88-.78,1.16A22,22,0,0,1,49.84,43c-4.39,2-8.86,3.71-13.18,5.82a5.23,5.23,0,0,1-4.6,0c-4.86-2.1-9.75-4.11-14.62-6.19a3.82,3.82,0,0,1-2.06-1.35,19.5,19.5,0,0,0,.16-3.5,54.8,54.8,0,0,0,5.85,2.64c3.46,1.47,7,2.86,10.4,4.4a5.63,5.63,0,0,0,5.16,0c4.17-2.08,8.54-3.74,12.79-5.65A13.43,13.43,0,0,0,53.85,36.93Z"/><path class="cls-3" d="M15.52,24.72A48.35,48.35,0,0,0,22.77,28c3.14,1.35,6.32,2.59,9.42,4a5.41,5.41,0,0,0,4.91-.26c4.29-2.11,8.75-3.84,13.1-5.79,1.25-.56,2.43-1.23,3.65-1.82,0,.76,0,1.51,0,2.27,0,1.62-.13,1.81-1.71,2.48a12.74,12.74,0,0,1-1.15.62c-4.77,2.11-9.62,4-14.32,6.31a5.08,5.08,0,0,1-4.45.1q-3.55-1.53-7.12-3c-2.7-1.13-5.41-2.23-8.11-3.35-.48-.4-1.16-.55-1.52-1.11C15.5,27.21,15.51,26,15.52,24.72Z"/><path class="cls-5" d="M17,29.57c2.7,1.12,5.41,2.22,8.11,3.35q3.57,1.5,7.12,3a5.08,5.08,0,0,0,4.45-.1c4.7-2.28,9.55-4.2,14.32-6.31a12.74,12.74,0,0,0,1.15-.62c.27.57,1,.42,1.37.92a1.06,1.06,0,0,1,.31,1c-2.82,1.55-5.83,2.7-8.77,4s-5.92,2.53-8.81,3.94a5,5,0,0,1-4.35-.23c-4.52-1.95-9.07-3.84-13.61-5.74a19.25,19.25,0,0,1-2.79-1.42l-.17-.15c-.18-.66.23-1,.73-1.2Z"/><path class="cls-5" d="M53.85,36.93a13.43,13.43,0,0,1-4.11,2.22C45.49,41.06,41.12,42.72,37,44.8a5.63,5.63,0,0,1-5.16,0c-3.44-1.54-6.94-2.93-10.4-4.4a54.8,54.8,0,0,1-5.85-2.64.38.38,0,0,0-.2-.33c-.15-.53.23-.75.57-1s.67-.17.82-.54C18.78,37,21,37.76,23.1,38.67c3,1.28,6.12,2.49,9.12,3.85a5.41,5.41,0,0,0,4.91-.26c5-2.44,10.21-4.44,15.27-6.75C52.94,35.92,54,35.86,53.85,36.93Z"/><path class="cls-6" d="M15.52,24.72c0,1.25,0,2.49,0,3.74a8.4,8.4,0,0,1-.17-2.78,10.28,10.28,0,0,1,0-1.11Z"/><path class="cls-3" d="M15.34,37.45a.38.38,0,0,1,.2.33,19.5,19.5,0,0,1-.16,3.5A30.58,30.58,0,0,1,15.34,37.45Z"/><path class="cls-6" d="M15.35,31.2l.17.15c-.11,1.15.2,2.33-.16,3.47C15.36,33.61,15.35,32.4,15.35,31.2Z"/><path class="cls-7" d="M25.29,25.91c-.93-.34-2-.26-2.8-.95s-.75-1.26.09-1.81a5.17,5.17,0,0,1,2.28-.78,10.3,10.3,0,0,1,5.47.51c.54.23,1.12.51,1.12,1.2s-.6.93-1.12,1.2a14.66,14.66,0,0,1-2.24.64Z"/><path class="cls-7" d="M29.38,27.33,38.06,26l-2.59,3.78c-.17.25-.35.09-.53,0L29.39,27.5Z"/><path class="cls-7" d="M32.79,18.61c.09,0,.2,0,.26,0a4.13,4.13,0,0,0,4.47,0c.07.15.12.21.11.24-.52,1.44-.52,1.44.94,2l.91.34a10.77,10.77,0,0,1-2.07.3,1.82,1.82,0,0,0-1.75,1.81,1.24,1.24,0,0,1-.62-.74,2,2,0,0,0-2-1.3,13.16,13.16,0,0,1-2.28-.32L32,20.48c1.19-.47,1.53-.25.76-1.76A.41.41,0,0,0,32.79,18.61Z"/><path class="cls-4" d="M43.8,25.78a1.35,1.35,0,0,1-1.45.08c-1.44-.62-2.92-1.16-4.65-1.83l5.92-2.27c0,.61,0,1.22,0,1.82S43.4,25.08,43.8,25.78Z"/><path class="cls-6" d="M43.8,25.78c-.4-.7-.12-1.46-.18-2.2s0-1.21,0-1.82l5,1.93v.22Z"/><path class="cls-5" d="M25.29,25.91h2.8A4.2,4.2,0,0,1,25.29,25.91Z"/><path class="cls-7" d="M32.72,18.72c-.07-.08-.3-.09-.15-.26s.19,0,.22.15A.41.41,0,0,1,32.72,18.72Z"/></svg>